<svg xmlns="http://www.w3.org/2000/svg" viewBox="0 0 1012 273" width="1012" height="273"><title>Iglum</title><path fill="#EFE9F7" fill-rule="evenodd" d="M215.50 98.39 L200.50 113.39 L215.50 128.39 L230.50 113.39 Z M154.50 253.48 L154.50 221.83 L154.50 203.25 L154.50 91.08 L154.50 87.25 L87.25 20.00 L20.00 87.25 L20.00 91.08 L20.00 203.25 L20.00 221.83 L20.00 253.48 L38.50 253.48 L38.50 210.91 L78.00 171.41 L78.00 253.48 L96.50 253.48 L96.50 171.41 L136.00 210.91 L136.00 253.48 Z M78.00 126.75 L42.33 91.08 L78.00 55.41 Z M132.17 91.08 L96.50 126.75 L96.50 55.41 Z M136.00 184.75 L100.33 149.08 L136.00 113.41 Z M38.50 113.41 L74.17 149.08 L38.50 184.75 Z M276.50 20.00 L276.50 253.48 L311.52 253.48 L311.52 20.00 Z M404.74 201.96 L367.38 164.60 L367.38 108.88 L456.26 20.00 L406.73 20.00 L332.36 94.38 L332.36 179.11 L406.73 253.48 L439.76 253.48 L439.76 136.74 L404.74 136.74 Z M465.26 186.34 L532.40 253.48 L581.93 253.48 L500.29 171.84 L500.29 20.00 L465.26 20.00 Z M692.50 219.47 L637.63 164.60 L637.63 20.00 L602.61 20.00 L602.61 179.11 L676.98 253.48 L708.01 253.48 L782.39 179.11 L782.39 20.00 L747.36 20.00 L747.36 164.60 Z M902.45 76.86 L845.59 20.00 L812.56 20.00 L812.56 253.48 L847.58 253.48 L847.58 71.53 L902.45 126.39 L957.32 71.53 L957.32 253.48 L992.34 253.48 L992.34 20.00 L959.32 20.00 Z M215.50 168.44 L200.50 183.44 L215.50 198.44 L230.50 183.44 Z"/></svg>
